<mxfile host="app.diagrams.net" agent="Mozilla/5.0 (Windows NT 10.0; Win64; x64) AppleWebKit/537.36 (KHTML, like Gecko) Chrome/138.0.0.0 Safari/537.36 Edg/138.0.0.0" version="28.0.7">
  <diagram name="Page-1" id="lf-cruuFBXOcDi_f2mNx">
    <mxGraphModel dx="2066" dy="727" grid="1" gridSize="10" guides="1" tooltips="1" connect="1" arrows="1" fold="1" page="1" pageScale="1" pageWidth="850" pageHeight="1100" math="0" shadow="0">
      <root>
        <mxCell id="0" />
        <mxCell id="1" parent="0" />
        <mxCell id="oDULbP2nB6lb4kxzuLzo-1" value="" style="endArrow=none;html=1;rounded=0;fillColor=#60a917;strokeColor=#2D7600;" edge="1" parent="1">
          <mxGeometry width="50" height="50" relative="1" as="geometry">
            <mxPoint x="-695" y="140" as="sourcePoint" />
            <mxPoint x="-55" y="140" as="targetPoint" />
          </mxGeometry>
        </mxCell>
        <mxCell id="oDULbP2nB6lb4kxzuLzo-2" value="Dev" style="edgeLabel;html=1;align=center;verticalAlign=middle;resizable=0;points=[];" vertex="1" connectable="0" parent="oDULbP2nB6lb4kxzuLzo-1">
          <mxGeometry x="0.9487" y="3" relative="1" as="geometry">
            <mxPoint as="offset" />
          </mxGeometry>
        </mxCell>
        <mxCell id="oDULbP2nB6lb4kxzuLzo-3" value="" style="endArrow=none;html=1;rounded=0;fillColor=#1ba1e2;strokeColor=#006EAF;" edge="1" parent="1">
          <mxGeometry width="50" height="50" relative="1" as="geometry">
            <mxPoint x="-695" y="250" as="sourcePoint" />
            <mxPoint x="-45" y="250" as="targetPoint" />
          </mxGeometry>
        </mxCell>
        <mxCell id="oDULbP2nB6lb4kxzuLzo-4" value="UAT" style="edgeLabel;html=1;align=center;verticalAlign=middle;resizable=0;points=[];" vertex="1" connectable="0" parent="oDULbP2nB6lb4kxzuLzo-3">
          <mxGeometry x="0.9034" relative="1" as="geometry">
            <mxPoint as="offset" />
          </mxGeometry>
        </mxCell>
        <mxCell id="oDULbP2nB6lb4kxzuLzo-5" value="" style="endArrow=none;html=1;rounded=0;fillColor=#e51400;strokeColor=#B20000;" edge="1" parent="1">
          <mxGeometry width="50" height="50" relative="1" as="geometry">
            <mxPoint x="-695" y="350" as="sourcePoint" />
            <mxPoint x="-55" y="350" as="targetPoint" />
          </mxGeometry>
        </mxCell>
        <mxCell id="oDULbP2nB6lb4kxzuLzo-6" value="Master" style="edgeLabel;html=1;align=center;verticalAlign=middle;resizable=0;points=[];" vertex="1" connectable="0" parent="oDULbP2nB6lb4kxzuLzo-5">
          <mxGeometry x="0.8468" y="2" relative="1" as="geometry">
            <mxPoint as="offset" />
          </mxGeometry>
        </mxCell>
        <mxCell id="oDULbP2nB6lb4kxzuLzo-7" style="edgeStyle=orthogonalEdgeStyle;rounded=0;orthogonalLoop=1;jettySize=auto;html=1;exitX=0.5;exitY=1;exitDx=0;exitDy=0;" edge="1" parent="1">
          <mxGeometry relative="1" as="geometry">
            <mxPoint x="-535" y="140" as="targetPoint" />
            <mxPoint x="-425" y="70" as="sourcePoint" />
          </mxGeometry>
        </mxCell>
        <mxCell id="oDULbP2nB6lb4kxzuLzo-8" value="Story" style="edgeLabel;html=1;align=center;verticalAlign=middle;resizable=0;points=[];" vertex="1" connectable="0" parent="oDULbP2nB6lb4kxzuLzo-7">
          <mxGeometry x="0.8331" y="-2" relative="1" as="geometry">
            <mxPoint as="offset" />
          </mxGeometry>
        </mxCell>
        <mxCell id="oDULbP2nB6lb4kxzuLzo-9" style="edgeStyle=orthogonalEdgeStyle;rounded=0;orthogonalLoop=1;jettySize=auto;html=1;exitX=0.5;exitY=1;exitDx=0;exitDy=0;" edge="1" parent="1">
          <mxGeometry relative="1" as="geometry">
            <mxPoint x="-285" y="350" as="targetPoint" />
            <mxPoint x="-425" y="70" as="sourcePoint" />
            <Array as="points">
              <mxPoint x="-285" y="70" />
            </Array>
          </mxGeometry>
        </mxCell>
        <mxCell id="oDULbP2nB6lb4kxzuLzo-10" value="Final merge" style="edgeLabel;html=1;align=center;verticalAlign=middle;resizable=0;points=[];" vertex="1" connectable="0" parent="oDULbP2nB6lb4kxzuLzo-9">
          <mxGeometry x="0.735" y="-3" relative="1" as="geometry">
            <mxPoint as="offset" />
          </mxGeometry>
        </mxCell>
        <mxCell id="oDULbP2nB6lb4kxzuLzo-11" style="edgeStyle=orthogonalEdgeStyle;rounded=0;orthogonalLoop=1;jettySize=auto;html=1;exitX=0.5;exitY=1;exitDx=0;exitDy=0;" edge="1" parent="1">
          <mxGeometry relative="1" as="geometry">
            <mxPoint x="-485" y="140" as="targetPoint" />
            <mxPoint x="-425" y="70" as="sourcePoint" />
          </mxGeometry>
        </mxCell>
        <mxCell id="oDULbP2nB6lb4kxzuLzo-12" value="Bugfix1" style="edgeLabel;html=1;align=center;verticalAlign=middle;resizable=0;points=[];" vertex="1" connectable="0" parent="oDULbP2nB6lb4kxzuLzo-11">
          <mxGeometry x="0.7065" relative="1" as="geometry">
            <mxPoint y="1" as="offset" />
          </mxGeometry>
        </mxCell>
        <mxCell id="oDULbP2nB6lb4kxzuLzo-13" style="edgeStyle=orthogonalEdgeStyle;rounded=0;orthogonalLoop=1;jettySize=auto;html=1;exitX=0.5;exitY=1;exitDx=0;exitDy=0;" edge="1" parent="1">
          <mxGeometry relative="1" as="geometry">
            <mxPoint x="-365" y="140" as="targetPoint" />
            <mxPoint x="-425" y="70" as="sourcePoint" />
          </mxGeometry>
        </mxCell>
        <mxCell id="oDULbP2nB6lb4kxzuLzo-14" value="Bugfix3" style="edgeLabel;html=1;align=center;verticalAlign=middle;resizable=0;points=[];" vertex="1" connectable="0" parent="oDULbP2nB6lb4kxzuLzo-13">
          <mxGeometry x="0.5011" y="-2" relative="1" as="geometry">
            <mxPoint as="offset" />
          </mxGeometry>
        </mxCell>
        <mxCell id="oDULbP2nB6lb4kxzuLzo-21" value="" style="endArrow=classic;html=1;rounded=0;" edge="1" parent="1">
          <mxGeometry width="50" height="50" relative="1" as="geometry">
            <mxPoint x="-820" y="510" as="sourcePoint" />
            <mxPoint x="-30" y="510" as="targetPoint" />
          </mxGeometry>
        </mxCell>
        <mxCell id="oDULbP2nB6lb4kxzuLzo-22" value="Time" style="edgeLabel;html=1;align=center;verticalAlign=middle;resizable=0;points=[];" vertex="1" connectable="0" parent="oDULbP2nB6lb4kxzuLzo-21">
          <mxGeometry x="0.877" y="3" relative="1" as="geometry">
            <mxPoint as="offset" />
          </mxGeometry>
        </mxCell>
        <mxCell id="oDULbP2nB6lb4kxzuLzo-27" value="" style="endArrow=none;html=1;rounded=0;" edge="1" parent="1">
          <mxGeometry width="50" height="50" relative="1" as="geometry">
            <mxPoint x="-565" y="71" as="sourcePoint" />
            <mxPoint x="-115" y="71" as="targetPoint" />
          </mxGeometry>
        </mxCell>
        <mxCell id="oDULbP2nB6lb4kxzuLzo-28" value="Feature1" style="edgeLabel;html=1;align=center;verticalAlign=middle;resizable=0;points=[];" vertex="1" connectable="0" parent="oDULbP2nB6lb4kxzuLzo-27">
          <mxGeometry x="0.6556" y="1" relative="1" as="geometry">
            <mxPoint as="offset" />
          </mxGeometry>
        </mxCell>
        <mxCell id="oDULbP2nB6lb4kxzuLzo-29" value="" style="endArrow=classic;html=1;rounded=0;" edge="1" parent="1">
          <mxGeometry width="50" height="50" relative="1" as="geometry">
            <mxPoint x="-563" y="350" as="sourcePoint" />
            <mxPoint x="-563" y="70" as="targetPoint" />
          </mxGeometry>
        </mxCell>
        <mxCell id="oDULbP2nB6lb4kxzuLzo-30" value="Create" style="edgeLabel;html=1;align=center;verticalAlign=middle;resizable=0;points=[];" vertex="1" connectable="0" parent="oDULbP2nB6lb4kxzuLzo-29">
          <mxGeometry x="-0.7429" y="1" relative="1" as="geometry">
            <mxPoint as="offset" />
          </mxGeometry>
        </mxCell>
        <mxCell id="oDULbP2nB6lb4kxzuLzo-31" value="" style="endArrow=classic;html=1;rounded=0;" edge="1" parent="1">
          <mxGeometry width="50" height="50" relative="1" as="geometry">
            <mxPoint x="-425" y="70" as="sourcePoint" />
            <mxPoint x="-425" y="140" as="targetPoint" />
          </mxGeometry>
        </mxCell>
        <mxCell id="oDULbP2nB6lb4kxzuLzo-32" value="Bugfix2" style="edgeLabel;html=1;align=center;verticalAlign=middle;resizable=0;points=[];" vertex="1" connectable="0" parent="oDULbP2nB6lb4kxzuLzo-31">
          <mxGeometry x="-0.0476" y="-1" relative="1" as="geometry">
            <mxPoint as="offset" />
          </mxGeometry>
        </mxCell>
        <mxCell id="oDULbP2nB6lb4kxzuLzo-33" value="" style="shape=link;html=1;rounded=0;" edge="1" parent="1">
          <mxGeometry width="100" relative="1" as="geometry">
            <mxPoint x="-675" y="480" as="sourcePoint" />
            <mxPoint x="-65" y="480" as="targetPoint" />
          </mxGeometry>
        </mxCell>
        <mxCell id="oDULbP2nB6lb4kxzuLzo-34" value="QAEnvironment" style="edgeLabel;html=1;align=center;verticalAlign=middle;resizable=0;points=[];" vertex="1" connectable="0" parent="oDULbP2nB6lb4kxzuLzo-33">
          <mxGeometry x="0.9074" y="4" relative="1" as="geometry">
            <mxPoint x="1" as="offset" />
          </mxGeometry>
        </mxCell>
        <mxCell id="oDULbP2nB6lb4kxzuLzo-35" value="" style="endArrow=classic;html=1;rounded=0;" edge="1" parent="1">
          <mxGeometry width="50" height="50" relative="1" as="geometry">
            <mxPoint x="-585" y="140" as="sourcePoint" />
            <mxPoint x="-585" y="480" as="targetPoint" />
          </mxGeometry>
        </mxCell>
        <mxCell id="oDULbP2nB6lb4kxzuLzo-36" value="" style="endArrow=classic;html=1;rounded=0;" edge="1" parent="1">
          <mxGeometry width="50" height="50" relative="1" as="geometry">
            <mxPoint x="-475" y="140" as="sourcePoint" />
            <mxPoint x="-475" y="480" as="targetPoint" />
          </mxGeometry>
        </mxCell>
        <mxCell id="oDULbP2nB6lb4kxzuLzo-37" value="" style="shape=link;html=1;rounded=0;" edge="1" parent="1">
          <mxGeometry width="100" relative="1" as="geometry">
            <mxPoint x="-690" y="400" as="sourcePoint" />
            <mxPoint x="-20" y="400" as="targetPoint" />
          </mxGeometry>
        </mxCell>
        <mxCell id="oDULbP2nB6lb4kxzuLzo-38" value="UATEnvironment" style="edgeLabel;html=1;align=center;verticalAlign=middle;resizable=0;points=[];" vertex="1" connectable="0" parent="oDULbP2nB6lb4kxzuLzo-37">
          <mxGeometry x="0.9087" y="-1" relative="1" as="geometry">
            <mxPoint as="offset" />
          </mxGeometry>
        </mxCell>
        <mxCell id="oDULbP2nB6lb4kxzuLzo-39" value="" style="endArrow=classic;html=1;rounded=0;" edge="1" parent="1">
          <mxGeometry width="50" height="50" relative="1" as="geometry">
            <mxPoint x="-405" y="70" as="sourcePoint" />
            <mxPoint x="-405" y="250" as="targetPoint" />
          </mxGeometry>
        </mxCell>
        <mxCell id="oDULbP2nB6lb4kxzuLzo-40" value="Merge" style="edgeLabel;html=1;align=center;verticalAlign=middle;resizable=0;points=[];" vertex="1" connectable="0" parent="oDULbP2nB6lb4kxzuLzo-39">
          <mxGeometry x="0.5121" y="-1" relative="1" as="geometry">
            <mxPoint as="offset" />
          </mxGeometry>
        </mxCell>
        <mxCell id="oDULbP2nB6lb4kxzuLzo-41" value="" style="endArrow=classic;html=1;rounded=0;" edge="1" parent="1">
          <mxGeometry width="50" height="50" relative="1" as="geometry">
            <mxPoint x="-400" y="250" as="sourcePoint" />
            <mxPoint x="-400" y="400" as="targetPoint" />
          </mxGeometry>
        </mxCell>
        <mxCell id="oDULbP2nB6lb4kxzuLzo-42" value="" style="endArrow=classic;html=1;rounded=0;" edge="1" parent="1">
          <mxGeometry width="50" height="50" relative="1" as="geometry">
            <mxPoint x="-355" y="70" as="sourcePoint" />
            <mxPoint x="-355" y="250" as="targetPoint" />
          </mxGeometry>
        </mxCell>
        <mxCell id="oDULbP2nB6lb4kxzuLzo-43" value="Merge" style="edgeLabel;html=1;align=center;verticalAlign=middle;resizable=0;points=[];" vertex="1" connectable="0" parent="oDULbP2nB6lb4kxzuLzo-42">
          <mxGeometry x="0.2137" y="-1" relative="1" as="geometry">
            <mxPoint as="offset" />
          </mxGeometry>
        </mxCell>
        <mxCell id="oDULbP2nB6lb4kxzuLzo-44" value="" style="endArrow=classic;html=1;rounded=0;" edge="1" parent="1">
          <mxGeometry width="50" height="50" relative="1" as="geometry">
            <mxPoint x="-345" y="250" as="sourcePoint" />
            <mxPoint x="-345" y="400" as="targetPoint" />
          </mxGeometry>
        </mxCell>
        <mxCell id="oDULbP2nB6lb4kxzuLzo-47" value="" style="endArrow=classic;html=1;rounded=0;" edge="1" parent="1">
          <mxGeometry width="50" height="50" relative="1" as="geometry">
            <mxPoint x="-415" y="140" as="sourcePoint" />
            <mxPoint x="-415" y="479.2857142857142" as="targetPoint" />
          </mxGeometry>
        </mxCell>
      </root>
    </mxGraphModel>
  </diagram>
</mxfile>
